<svg width="1150" height="1150" viewBox="0 0 1150 1150" fill="none" xmlns="http://www.w3.org/2000/svg">
<g clip-path="url(#clip0_787_32)">
<path d="M575 120.172C575 70.4662 534.436 29.4145 485.407 37.5884C409.528 50.2388 336.837 78.8764 272.31 121.992C182.713 181.858 112.881 266.949 71.6447 366.503C30.4079 466.057 19.6185 575.604 40.6408 681.29C61.6631 786.977 113.553 884.056 189.749 960.251C265.944 1036.45 363.023 1088.34 468.709 1109.36C574.396 1130.38 683.942 1119.59 783.497 1078.36C883.051 1037.12 968.141 967.286 1028.01 877.69C1071.12 813.163 1099.76 740.472 1112.41 664.592C1120.59 615.564 1079.53 575 1029.83 575H910.173C860.467 575 821.677 616.599 803.838 662.993C797.354 679.856 788.993 696.035 778.854 711.21C751.914 751.529 713.623 782.953 668.823 801.51C624.024 820.066 574.728 824.921 527.169 815.461C479.61 806.001 435.925 782.651 401.637 748.363C367.349 714.075 343.998 670.389 334.538 622.831C325.078 575.272 329.934 525.976 348.49 481.176C367.047 436.377 398.471 398.086 438.789 371.146C453.965 361.006 470.144 352.646 487.007 346.162C533.401 328.323 575 289.533 575 239.827L575 120.172Z" fill="#00C896"/>
<circle cx="831.659" cy="299.555" r="175" fill="#00C896"/>
</g>
<defs>
<clipPath id="clip0_787_32">
<rect width="1150" height="1150" fill="white"/>
</clipPath>
</defs>
</svg>
