<svg width="32" height="32" viewBox="0 0 1198 1200" fill="none" xmlns="http://www.w3.org/2000/svg">
  <path d="M600 90C600 40.2944 559.483 -0.691048 510.335 6.73717C423.523 19.8582 340.267 51.9344 266.658 101.118C167.988 167.047 91.0849 260.754 45.6723 370.39C0.259702 480.026 -11.6223 600.666 11.5288 717.054C34.68 833.443 91.8244 940.353 175.736 1024.26C259.647 1108.18 366.557 1165.32 482.946 1188.47C599.334 1211.62 719.974 1199.74 829.61 1154.33C939.246 1108.92 1032.95 1032.01 1098.88 933.342C1148.07 859.733 1180.14 776.477 1193.26 689.665C1200.69 640.517 1159.71 600 1110 600H990C940.294 600 901.29 641.172 886.601 688.657C878.09 716.171 865.615 742.464 849.441 766.671C816.476 816.006 769.623 854.458 714.805 877.164C659.987 899.87 599.667 905.811 541.473 894.236C483.279 882.66 429.824 854.088 387.868 812.132C345.912 770.176 317.34 716.721 305.764 658.527C294.189 600.333 300.13 540.013 322.836 485.195C345.542 430.377 383.994 383.524 433.329 350.559C457.536 334.385 483.829 321.91 511.343 313.399C558.828 298.71 600 259.706 600 210L600 90Z" fill="#00a87a"/>
  <circle cx="900" cy="300" r="150" fill="#00a87a"/>
</svg>
